<svg xmlns="http://www.w3.org/2000/svg" width="14" height="13" viewBox="0 0 14 13" fill="none">
  <path d="M6.5 8.84641C6.5 8.57041 6.724 8.34241 7 8.34241C7.276 8.34241 7.5 8.56307 7.5 8.83907V8.84641C7.5 9.12241 7.276 9.34641 7 9.34641C6.724 9.34641 6.5 9.12241 6.5 8.84641Z" fill="#BE0E2B"/>
  <path d="M2.19688 11.612H11.8515C12.6162 11.572 13.2042 10.9207 13.1649 10.156C13.1562 10.0013 13.1229 9.84865 13.0642 9.70598L8.21288 1.21532C7.84221 0.545318 6.99888 0.302651 6.32888 0.673984C6.10088 0.799318 5.91288 0.987318 5.78688 1.21532L0.935547 9.70598C0.647547 10.4153 0.988881 11.2233 1.69755 11.512C1.84155 11.57 1.99355 11.6033 2.14821 11.612" stroke="#BE0E2B" stroke-linecap="round" stroke-linejoin="round"/>
  <path d="M6.99282 6.9308V4.86414" stroke="#BE0E2B" stroke-linecap="round" stroke-linejoin="round"/>
</svg>